<svg width="623" height="279" viewBox="0 0 623 279" fill="none" xmlns="http://www.w3.org/2000/svg">
<path d="M123.711 7.20581C119.805 11.2464 113.205 18.3176 109.03 23.0316C104.854 27.813 101.285 31.6516 101.151 31.6516C99.9384 31.6516 93.608 29.968 93.0019 29.4966C92.5979 29.1599 92.0591 27.3416 91.7898 25.5233C91.3183 22.2908 91.251 22.1562 89.5001 22.5602C88.5572 22.7622 74.1456 26.8029 57.4444 31.517L27.1396 40.137L26.9376 46.8714L26.7355 53.6731L15.2197 63.3706C8.82205 68.6908 3.23251 73.4049 2.69376 73.8089C1.95297 74.3477 1.54891 79.0618 0.875471 95.9651L0 117.448L3.70392 123.778C7.60986 130.445 7.13845 129.974 18.9236 137.314C26.0621 141.692 25.658 140.883 23.6377 147.483C22.3582 151.793 21.8868 154.824 21.8194 159.605C21.7521 165.531 21.8868 166.272 23.9071 170.043C26.4662 175.094 31.3823 180.616 35.1535 182.839C38.8574 184.994 44.3123 186.139 48.2182 185.532L51.3834 185.061L46.8714 183.512C36.6351 180.078 31.517 173.141 30.9782 162.164C30.5741 154.756 31.9884 148.493 35.827 140.008C45.5918 118.256 75.4252 73.7416 117.852 17.6441C125.192 7.94659 131.119 6.80681e-06 130.984 6.80681e-06C130.849 6.80681e-06 127.549 3.23251 123.711 7.20581Z" fill="#59DCE0"/>
<path d="M94.0795 55.6934C75.2905 80.9474 52.5956 116.236 43.2348 134.553C37.1065 146.608 34.8842 153.14 34.8842 159.201C34.8842 166.609 36.3657 170.717 40.4737 174.757C44.1103 178.259 50.5753 181.155 54.6833 181.155C56.7036 181.155 56.6362 181.155 53.6731 179.27C49.6325 176.643 46.1979 172.939 44.245 169.168C43.0328 166.744 42.5614 164.656 42.4267 160.211C42.2246 155.16 42.4267 153.679 44.245 148.291C46.4673 141.557 49.2958 135.631 54.9526 125.933C67.95 103.44 94.3488 57.3097 96.0998 54.0098C97.312 51.6528 96.6385 52.2589 94.0795 55.6934Z" fill="#59DCE0"/>
<path d="M190.785 54.6159C183.916 55.222 190.785 56.5016 190.785 57.0403C190.785 57.7811 189.907 65.3741 191.052 66.923L190.785 64.1451L191.052 68.7581C190.546 63.4885 193.412 71.9233 194.287 70.5764C195.701 68.2194 195.971 68.0847 197.654 68.7581C202.301 70.5091 205.668 76.2333 204.928 81.0147C203.715 87.8838 196.712 100.612 188.63 110.511C186.273 113.407 184.388 115.966 184.388 116.168C184.388 116.976 193.277 109.501 197.048 105.393C202.166 99.9384 206.005 94.3488 209.17 87.7491C214.154 77.1761 211.729 69.5663 201.022 61.6197L199.136 60.2728L201.897 57.0403L194.287 59.5994V57.8316C192.132 57.899 194.153 54.2792 190.785 54.6159Z" fill="#59DCE0"/>
<path d="M216.039 60.4075C219.474 62.6972 224.188 67.6133 225.669 70.4418C227.622 74.2804 228.296 79.7352 227.42 84.3146C225.535 94.0795 221.225 100.747 208.362 113.475C187.89 133.812 138.796 172.064 88.4226 207.015C80.0046 212.874 81.2168 212.403 97.2446 203.581L101.353 201.358L102.497 205.736L103.575 210.18L97.4466 223.582C91.5204 236.445 91.3184 237.118 92.3285 238.532C96.0324 243.785 124.452 278.804 125.058 278.804C125.26 278.804 134.823 271.8 146.204 263.315C162.164 251.395 166.878 247.556 166.609 246.613C166.474 246.007 165.935 243.718 165.531 241.563C164.723 237.657 164.791 237.589 166.676 235.569C167.686 234.492 171.996 230.99 176.172 227.824C183.108 222.639 183.782 221.966 183.445 220.349C182.3 214.894 179 195.095 179 193.816C179 193.008 186.408 177.923 195.432 160.346C217.386 117.583 216.982 118.256 221.898 112.464C230.316 102.632 235.232 93.7428 235.973 87.0084C236.781 80.274 232.471 68.8255 227.555 64.5155C224.727 62.0238 219.474 59.5321 215.703 58.926L213.009 58.4545L216.039 60.4075Z" fill="#59DCE0"/>
<path d="M209.574 62.7646C214.894 69.3643 217.252 76.3681 216.107 82.429C215.231 87.1431 214.019 90.0389 210.854 94.7529C206.207 101.757 200.954 106.942 161.154 143.443C150.042 153.612 138.863 164.05 136.237 166.542L131.523 171.188L136.91 167.282C160.817 150.11 194.355 122.162 207.621 108.356C219.541 95.9651 223.447 89.2981 223.447 81.3515C223.447 73.1355 220.753 68.3541 213.346 63.438C208.16 60.0708 207.217 59.8688 209.574 62.7646Z" fill="#59DCE0"/>
<path d="M59.8014 124.721C56.6362 128.964 50.6426 141.692 49.0264 147.483C47.2081 154.15 46.602 161.76 47.6795 165.666C48.757 169.841 54.2118 175.094 59.3973 177.047C61.485 177.788 63.64 178.461 64.1787 178.461C65.593 178.461 65.4583 179.337 63.5053 183.176C62.5625 185.061 69.3642 176.525 69.701 176.525C72.5967 176.525 73.2365 177.737 73.2365 176.525C73.2365 175.582 69.8188 172.737 68.9433 172.737C68.674 172.737 67.748 163.511 67.3439 165.801C66.9398 168.09 66.2664 170.245 65.9297 170.582C64.6501 171.862 59.6667 169.707 56.7036 166.744C54.2792 164.387 53.8078 163.376 53.4037 160.211C52.5956 153.612 55.424 140.277 60.3401 127.684C61.485 124.721 62.3605 122.162 62.2258 122.095C62.0911 121.96 61.0136 123.105 59.8014 124.721Z" fill="#59DCE0"/>
<path d="M114.07 53.0897L130.47 56.4829L128.208 48L156.484 61.0071L175.147 104.553L144.043 139.05L98.8579 176.324L93.0856 161.227L97.0818 155.454L88.6211 145.271L67.131 153.754L73.6293 129.289C75.6973 121.504 78.7898 114.028 82.8257 107.057L114.07 53.0897Z" fill="white" stroke="white"/>
<path d="M82.9658 120.953L105.587 66.6624L79.2047 112.811C77.5123 115.771 76.1867 118.927 75.2572 122.208L66 154.885L78.2107 149.682L82.9658 120.953Z" fill="white"/>
<circle cx="74.2467" cy="176.273" r="13.1321" fill="#14E1E7"/>
<circle cx="191.93" cy="58.5892" r="13.1321" fill="#14E1E7"/>
<path d="M610.419 182L608.979 176.016H599.891L598.675 182H589.267L599.027 147.088L598.259 144.496H611.475L622.163 182H610.419ZM604.019 155.504L601.203 169.488H607.411L604.019 155.504Z" fill="#59DCE0"/>
<path d="M589.168 179.344L588.88 179.696C588.666 179.909 588.304 180.187 587.792 180.528C587.301 180.848 586.704 181.179 586 181.52C585.317 181.84 584.4 182.107 583.248 182.32C582.096 182.555 580.858 182.672 579.536 182.672C576.741 182.672 574.352 182.213 572.368 181.296C570.384 180.357 568.826 179.003 567.696 177.232C566.586 175.44 565.786 173.424 565.296 171.184C564.805 168.923 564.56 166.309 564.56 163.344C564.56 160.187 564.805 157.467 565.296 155.184C565.786 152.88 566.597 150.864 567.728 149.136C568.88 147.387 570.458 146.075 572.464 145.2C574.469 144.325 576.912 143.888 579.792 143.888C581.114 143.888 582.352 144.005 583.504 144.24C584.677 144.475 585.594 144.741 586.256 145.04C586.938 145.339 587.546 145.68 588.08 146.064C588.634 146.448 588.976 146.715 589.104 146.864C589.253 147.013 589.36 147.131 589.424 147.216L588.944 154.576H584.08L582.416 150.768C582.032 150.661 581.712 150.608 581.456 150.608C580.026 150.608 578.928 150.939 578.16 151.6C577.392 152.24 576.805 153.509 576.4 155.408C575.994 157.285 575.792 159.995 575.792 163.536C575.792 165.648 575.92 167.493 576.176 169.072C576.453 170.651 576.784 171.867 577.168 172.72C577.552 173.552 578.01 174.224 578.544 174.736C579.077 175.248 579.557 175.579 579.984 175.728C580.41 175.856 580.869 175.92 581.36 175.92C582.448 175.92 583.589 175.792 584.784 175.536C585.978 175.259 586.96 174.843 587.728 174.288L589.168 179.344Z" fill="#59DCE0"/>
<path d="M550.209 182V144.496H561.121V182H550.209Z" fill="#59DCE0"/>
<path d="M529.703 169.52V182H519.079V144.496H523.303C524.327 144.496 525.853 144.453 527.879 144.368C529.906 144.261 531.581 144.208 532.903 144.208C537.511 144.208 540.946 145.221 543.207 147.248C545.49 149.275 546.631 152.379 546.631 156.56C546.631 159.035 546.087 161.232 544.999 163.152C543.933 165.072 542.514 166.597 540.743 167.728C541.703 167.963 542.525 168.507 543.207 169.36C543.911 170.213 544.455 171.227 544.839 172.4C545.223 173.552 545.554 174.725 545.831 175.92C546.13 177.093 546.461 178.256 546.823 179.408C547.207 180.56 547.623 181.424 548.071 182H536.263C536.029 181.701 535.847 180.869 535.719 179.504C535.591 178.117 535.41 176.464 535.175 174.544C534.962 172.603 534.653 170.981 534.247 169.68C534.205 169.68 534.151 169.68 534.087 169.68C533.682 169.68 533.245 169.68 532.775 169.68C532.327 169.659 531.933 169.637 531.591 169.616C531.25 169.595 530.887 169.573 530.503 169.552C530.141 169.531 529.874 169.52 529.703 169.52ZM529.703 163.568H530.727C531.261 163.568 531.709 163.547 532.071 163.504C532.434 163.461 532.829 163.387 533.255 163.28C533.703 163.152 534.066 162.96 534.343 162.704C534.642 162.448 534.919 162.117 535.175 161.712C535.431 161.307 535.623 160.784 535.751 160.144C535.879 159.504 535.943 158.757 535.943 157.904V155.376C535.943 153.52 535.453 152.229 534.471 151.504C533.511 150.757 532.125 150.384 530.311 150.384H529.703V163.568Z" fill="#59DCE0"/>
<path d="M506.049 182H495.457V144.496H516.577V152.656L506.049 152.016V160.72H514.689V168.656L506.049 168.016V182Z" fill="#59DCE0"/>
<path d="M482.45 182L481.01 176.016H471.922L470.706 182H461.298L471.058 147.088L470.29 144.496H483.506L494.194 182H482.45ZM476.05 155.504L473.234 169.488H479.442L476.05 155.504Z" fill="#59DCE0"/>
<path d="M416.116 182H406.484L409.46 144.496H424.468L427.284 157.072L428.564 163.44L429.78 157.104L432.276 144.496H445.652L448.404 182H438.452L436.82 159.952L436.436 151.824L431.54 178.256H423.188L417.3 151.824L417.108 159.952L416.116 182Z" fill="white"/>
<path d="M389.39 182.672C387.193 182.672 385.241 182.459 383.534 182.032C381.849 181.605 380.462 181.029 379.374 180.304C378.307 179.579 377.422 178.683 376.718 177.616C376.035 176.528 375.555 175.387 375.278 174.192C375.001 172.997 374.862 171.675 374.862 170.224V144.496H386.254V168.784C386.254 171.493 386.531 173.36 387.086 174.384C387.662 175.387 388.494 175.888 389.582 175.888C390.179 175.888 390.702 175.792 391.15 175.6C391.598 175.387 392.014 175.035 392.398 174.544C392.782 174.032 393.07 173.307 393.262 172.368C393.475 171.408 393.582 170.245 393.582 168.88V144.496H403.694V170.416C403.694 171.845 403.566 173.136 403.31 174.288C403.075 175.44 402.627 176.56 401.966 177.648C401.326 178.715 400.473 179.611 399.406 180.336C398.361 181.04 396.985 181.605 395.278 182.032C393.593 182.459 391.63 182.672 389.39 182.672Z" fill="white"/>
<path d="M353.752 182V152.976H346.264V144.496H372.056V152.976H364.568V182H353.752Z" fill="white"/>
<path d="M323.289 182H313.113V147.504L311.545 144.496H323.321L329.209 156.656L334.841 168.784L333.273 154.544V144.496H343.481V182H333.721L326.105 167.184L321.401 157.904L323.289 170.192V182Z" fill="white"/>
<path d="M300.106 182L298.666 176.016H289.578L288.362 182H278.954L288.714 147.088L287.946 144.496H301.162L311.85 182H300.106ZM293.706 155.504L290.89 169.488H297.098L293.706 155.504Z" fill="white"/>
<path d="M263.109 182.672C260.911 182.672 258.959 182.459 257.253 182.032C255.567 181.605 254.181 181.029 253.093 180.304C252.026 179.579 251.141 178.683 250.437 177.616C249.754 176.528 249.274 175.387 248.997 174.192C248.719 172.997 248.581 171.675 248.581 170.224V144.496H259.973V168.784C259.973 171.493 260.25 173.36 260.805 174.384C261.381 175.387 262.213 175.888 263.301 175.888C263.898 175.888 264.421 175.792 264.869 175.6C265.317 175.387 265.733 175.035 266.117 174.544C266.501 174.032 266.789 173.307 266.981 172.368C267.194 171.408 267.301 170.245 267.301 168.88V144.496H277.413V170.416C277.413 171.845 277.285 173.136 277.029 174.288C276.794 175.44 276.346 176.56 275.685 177.648C275.045 178.715 274.191 179.611 273.125 180.336C272.079 181.04 270.703 181.605 268.997 182.032C267.311 182.459 265.349 182.672 263.109 182.672Z" fill="white"/>
<path d="M229.672 177.296C230.909 177.296 231.795 176.869 232.328 176.016C233.117 174.715 233.512 171.504 233.512 166.384V158.352C233.512 155.301 233.213 153.029 232.616 151.536C232.019 150.043 231.037 149.296 229.672 149.296C228.712 149.296 227.965 149.637 227.432 150.32C226.472 151.557 225.992 154.608 225.992 159.472V167.824C225.992 171.365 226.259 173.829 226.792 175.216C227.347 176.603 228.307 177.296 229.672 177.296ZM232.968 192.368C230.195 192.368 228.221 191.6 227.048 190.064C225.875 188.549 225.235 185.989 225.128 182.384C223.827 182.171 222.653 181.829 221.608 181.36C220.563 180.891 219.667 180.347 218.92 179.728C218.173 179.088 217.523 178.32 216.968 177.424C216.413 176.528 215.955 175.589 215.592 174.608C215.251 173.627 214.973 172.517 214.76 171.28C214.547 170.021 214.397 168.773 214.312 167.536C214.248 166.299 214.216 164.912 214.216 163.376C214.216 160.816 214.344 158.587 214.6 156.688C214.877 154.789 215.379 153.008 216.104 151.344C216.829 149.659 217.789 148.293 218.984 147.248C220.2 146.203 221.757 145.381 223.656 144.784C225.576 144.187 227.837 143.888 230.44 143.888C232.232 143.888 233.843 144.059 235.272 144.4C236.701 144.72 237.928 145.168 238.952 145.744C239.976 146.32 240.861 147.067 241.608 147.984C242.376 148.901 242.984 149.883 243.432 150.928C243.901 151.952 244.275 153.157 244.552 154.544C244.829 155.931 245.021 157.307 245.128 158.672C245.235 160.037 245.288 161.584 245.288 163.312C245.288 165.36 245.203 167.195 245.032 168.816C244.861 170.416 244.552 171.952 244.104 173.424C243.656 174.875 243.069 176.133 242.344 177.2C241.64 178.267 240.723 179.205 239.592 180.016C238.483 180.805 237.171 181.424 235.656 181.872V182.032C235.656 183.739 235.901 184.869 236.392 185.424C236.904 185.979 237.683 186.256 238.728 186.256C239.027 186.256 239.304 186.224 239.56 186.16C239.837 186.117 240.083 186.053 240.296 185.968C240.509 185.883 240.712 185.776 240.904 185.648V190C240.883 190.021 240.851 190.053 240.808 190.096C239.059 191.611 236.445 192.368 232.968 192.368Z" fill="white"/>
</svg>
