<svg width="665" height="319" viewBox="0 0 665 319" fill="none" xmlns="http://www.w3.org/2000/svg">
<path d="M141.547 8.24483C137.078 12.868 129.526 20.9586 124.749 26.3523C119.972 31.8231 115.888 36.2151 115.734 36.2151C114.347 36.2151 107.104 34.2888 106.41 33.7494C105.948 33.3642 105.332 31.2837 105.023 29.2033C104.484 25.5047 104.407 25.3506 102.404 25.813C101.325 26.0441 84.8355 30.6673 65.7263 36.061L31.0524 45.9238L30.8213 53.6291L30.5901 61.4115L17.414 72.5072C10.094 78.5944 3.69855 83.9881 3.08213 84.4504C2.23454 85.0668 1.77222 90.4606 1.00169 109.801L0 134.381L4.23792 141.624C8.70701 149.252 8.16763 148.713 21.6519 157.112C29.8196 162.12 29.3573 161.195 27.0457 168.747C25.5816 173.678 25.0423 177.145 24.9652 182.616C24.8882 189.397 25.0423 190.244 27.3539 194.559C30.2819 200.338 35.9068 206.657 40.2217 209.199C44.4597 211.665 50.701 212.975 55.1701 212.282L58.7916 211.742L53.629 209.97C41.9169 206.04 36.0609 198.104 35.4444 185.544C34.9821 177.068 36.6002 169.902 40.9923 160.194C52.165 135.306 86.2995 84.3734 134.843 20.1881C143.242 9.09241 150.022 0.000139379 149.868 0.000139379C149.714 0.000139379 145.939 3.69869 141.547 8.24483Z" fill="url(#paint0_linear_2_154)"/>
<path d="M107.642 63.7231C86.1445 92.6181 60.1776 132.994 49.4672 153.952C42.4554 167.745 39.9126 175.219 39.9126 182.154C39.9126 190.63 41.6078 195.33 46.308 199.953C50.4689 203.96 57.866 207.273 62.5662 207.273C64.8778 207.273 64.8008 207.273 61.4104 205.116C56.7872 202.111 52.8575 197.873 50.623 193.558C49.236 190.784 48.6967 188.395 48.5426 183.31C48.3114 177.531 48.5426 175.836 50.623 169.671C53.1657 161.966 56.402 155.185 62.8744 144.09C77.7457 118.354 107.951 65.5724 109.954 61.7968C111.341 59.1 110.57 59.7934 107.642 63.7231Z" fill="url(#paint1_linear_2_154)"/>
<path d="M218.292 62.4902C210.432 63.1837 218.292 64.6477 218.292 65.2641C218.292 66.1117 217.286 74.7995 218.596 76.5717L218.292 73.3933L218.596 78.6714C218.018 72.642 221.297 82.2929 222.298 80.7518C223.917 78.055 224.225 77.9008 226.151 78.6714C231.468 80.6748 235.32 87.2243 234.473 92.6951C233.086 100.554 225.072 115.118 215.826 126.444C213.129 129.758 210.972 132.686 210.972 132.917C210.972 133.841 221.143 125.289 225.458 120.588C231.314 114.347 235.706 107.952 239.327 100.4C245.029 88.303 242.255 79.596 230.004 70.5037L227.846 68.9627L231.006 65.2641L222.298 68.1922V66.1695C219.833 66.2466 222.144 62.105 218.292 62.4902Z" fill="url(#paint2_linear_2_154)"/>
<path d="M247.186 69.1168C251.116 71.7367 256.509 77.3615 258.204 80.5978C260.439 84.9898 261.209 91.2311 260.208 96.4707C258.05 107.643 253.119 115.272 238.402 129.835C214.978 153.105 158.806 196.871 101.17 236.862C91.5385 243.565 92.9254 243.026 111.264 232.932L115.964 230.389L117.274 235.398L118.507 240.483L111.495 255.817C104.715 270.534 104.483 271.304 105.639 272.922C109.877 278.933 142.394 319 143.087 319C143.318 319 154.26 310.987 167.282 301.278C185.543 287.64 190.937 283.248 190.629 282.169C190.475 281.475 189.858 278.856 189.396 276.39C188.471 271.921 188.548 271.844 190.706 269.532C191.862 268.299 196.793 264.293 201.57 260.671C209.507 254.738 210.277 253.967 209.892 252.118C208.582 245.877 204.807 223.223 204.807 221.759C204.807 220.835 213.282 203.575 223.608 183.464C248.727 134.535 248.265 135.306 253.889 128.679C263.521 117.429 269.146 107.258 269.994 99.5528C270.918 91.8475 265.987 78.7485 260.362 73.8171C257.126 70.9661 251.116 68.1152 246.801 67.4217L243.718 66.8823L247.186 69.1168Z" fill="url(#paint3_linear_2_154)"/>
<path d="M239.789 71.8131C245.876 79.3643 248.573 87.3778 247.263 94.3126C246.261 99.7063 244.874 103.02 241.253 108.413C235.936 116.427 229.926 122.36 184.388 164.123C171.674 175.758 158.883 187.701 155.878 190.552L150.484 195.869L156.649 191.4C184.002 171.751 222.375 139.774 237.554 123.978C251.193 109.8 255.662 102.172 255.662 93.0797C255.662 83.6792 252.58 78.2085 244.104 72.5836C238.171 68.7309 237.092 68.4998 239.789 71.8131Z" fill="url(#paint4_linear_2_154)"/>
<path d="M68.4227 142.703C64.8012 147.557 57.9435 162.12 56.0942 168.747C54.0138 176.375 53.3203 185.082 54.5531 189.551C55.786 194.328 62.0273 200.338 67.9604 202.573C70.349 203.421 72.8147 204.191 73.4312 204.191C75.0493 204.191 74.8952 205.193 72.6606 209.585C71.5819 211.742 79.3643 201.976 79.7495 201.976C83.0628 201.976 83.7948 203.363 83.7948 201.976C83.7948 200.897 79.8844 197.642 78.8827 197.642C78.5745 197.642 77.515 187.085 77.0527 189.705C76.5903 192.325 75.8198 194.791 75.4345 195.176C73.9705 196.64 68.2686 194.174 64.8783 190.784C62.1043 188.087 61.565 186.931 61.1027 183.31C60.178 175.758 63.4142 160.502 69.0391 146.093C70.349 142.703 71.3507 139.775 71.1966 139.698C71.0425 139.543 69.8097 140.853 68.4227 142.703Z" fill="url(#paint5_linear_2_154)"/>
<path d="M130.515 60.7437L149.279 64.6261L146.691 54.9202L179.044 69.8026L200.397 119.626L164.809 159.097L113.11 201.745L106.505 184.471L111.077 177.867L101.397 166.215L76.8086 175.921L84.693 146.238C86.7609 138.453 89.8534 130.977 93.8893 124.006L130.515 60.7437Z" fill="white" stroke="white"/>
<path d="M94.9275 138.391L120.81 76.2729L90.2567 129.718C88.5643 132.678 87.2387 135.833 86.3093 139.114L75.5156 177.214L89.4868 171.262L94.9275 138.391Z" fill="white"/>
<circle cx="219.601" cy="67.0361" r="15.0254" fill="url(#paint6_linear_2_154)"/>
<circle cx="80.2143" cy="201.749" r="15.0254" fill="url(#paint7_linear_2_154)"/>
<path d="M653.328 191.873L651.935 186.084H643.142L641.966 191.873H632.863L642.306 158.096L641.563 155.588H654.35L664.69 191.873H653.328ZM647.136 166.238L644.411 179.768H650.418L647.136 166.238Z" fill="url(#paint8_linear_2_154)"/>
<path d="M632.768 189.304L632.489 189.644C632.282 189.851 631.932 190.119 631.436 190.449C630.962 190.759 630.384 191.079 629.702 191.409C629.042 191.719 628.154 191.977 627.04 192.183C625.925 192.41 624.728 192.524 623.449 192.524C620.745 192.524 618.433 192.08 616.513 191.192C614.594 190.284 613.087 188.974 611.993 187.26C610.92 185.527 610.146 183.576 609.671 181.409C609.197 179.221 608.959 176.693 608.959 173.824C608.959 170.769 609.197 168.137 609.671 165.929C610.146 163.7 610.93 161.749 612.024 160.077C613.139 158.385 614.666 157.116 616.606 156.269C618.547 155.423 620.91 155 623.696 155C624.976 155 626.173 155.114 627.288 155.341C628.423 155.568 629.31 155.826 629.95 156.115C630.611 156.404 631.199 156.734 631.715 157.105C632.252 157.477 632.582 157.735 632.706 157.879C632.85 158.024 632.953 158.137 633.015 158.22L632.551 165.341H627.845L626.235 161.656C625.863 161.553 625.554 161.502 625.306 161.502C623.923 161.502 622.86 161.822 622.117 162.461C621.374 163.081 620.807 164.309 620.414 166.146C620.022 167.962 619.826 170.583 619.826 174.009C619.826 176.053 619.95 177.838 620.198 179.366C620.466 180.893 620.786 182.069 621.157 182.895C621.529 183.7 621.973 184.35 622.489 184.845C623.005 185.341 623.469 185.661 623.882 185.805C624.295 185.929 624.739 185.991 625.213 185.991C626.266 185.991 627.37 185.867 628.526 185.619C629.682 185.351 630.631 184.949 631.374 184.412L632.768 189.304Z" fill="url(#paint9_linear_2_154)"/>
<path d="M595.074 191.873V155.588H605.631V191.873H595.074Z" fill="url(#paint10_linear_2_154)"/>
<path d="M575.236 179.799V191.873H564.957V155.588H569.044C570.034 155.588 571.51 155.547 573.471 155.464C575.432 155.361 577.052 155.31 578.332 155.31C582.79 155.31 586.113 156.29 588.301 158.251C590.509 160.212 591.614 163.215 591.614 167.26C591.614 169.654 591.087 171.78 590.035 173.638C589.003 175.496 587.63 176.971 585.917 178.065C586.846 178.292 587.64 178.819 588.301 179.644C588.982 180.47 589.508 181.45 589.88 182.585C590.251 183.7 590.571 184.835 590.84 185.991C591.129 187.126 591.449 188.251 591.799 189.366C592.171 190.48 592.573 191.316 593.007 191.873H581.583C581.356 191.584 581.18 190.779 581.056 189.459C580.932 188.117 580.757 186.517 580.53 184.66C580.324 182.781 580.024 181.213 579.632 179.954C579.591 179.954 579.539 179.954 579.477 179.954C579.085 179.954 578.662 179.954 578.208 179.954C577.774 179.933 577.393 179.913 577.062 179.892C576.732 179.871 576.381 179.851 576.01 179.83C575.659 179.809 575.401 179.799 575.236 179.799ZM575.236 174.04H576.227C576.743 174.04 577.176 174.02 577.527 173.978C577.878 173.937 578.26 173.865 578.672 173.762C579.106 173.638 579.457 173.452 579.725 173.204C580.014 172.957 580.282 172.637 580.53 172.245C580.778 171.853 580.963 171.347 581.087 170.728C581.211 170.108 581.273 169.386 581.273 168.56V166.115C581.273 164.319 580.798 163.07 579.849 162.368C578.92 161.646 577.578 161.285 575.824 161.285H575.236V174.04Z" fill="url(#paint11_linear_2_154)"/>
<path d="M552.349 191.873H542.101V155.588H562.534V163.483L552.349 162.864V171.285H560.708V178.963L552.349 178.344V191.873Z" fill="url(#paint12_linear_2_154)"/>
<path d="M529.518 191.873L528.125 186.084H519.332L518.155 191.873H509.053L518.496 158.096L517.753 155.588H530.54L540.88 191.873H529.518ZM523.326 166.238L520.601 179.768H526.608L523.326 166.238Z" fill="url(#paint13_linear_2_154)"/>
<path d="M465.339 191.873H456.02L458.899 155.588H473.42L476.144 167.755L477.382 173.916L478.559 167.786L480.974 155.588H493.915L496.578 191.873H486.949L485.37 170.542L484.999 162.678L480.262 188.251H472.181L466.485 162.678L466.299 170.542L465.339 191.873Z" fill="white"/>
<path d="M439.48 192.523C437.354 192.523 435.466 192.317 433.814 191.904C432.184 191.491 430.842 190.934 429.79 190.232C428.758 189.531 427.901 188.664 427.22 187.632C426.56 186.579 426.095 185.475 425.827 184.319C425.558 183.163 425.424 181.884 425.424 180.48V155.588H436.446V179.087C436.446 181.708 436.714 183.514 437.251 184.505C437.808 185.475 438.613 185.96 439.666 185.96C440.244 185.96 440.75 185.867 441.183 185.681C441.616 185.475 442.019 185.134 442.39 184.66C442.762 184.164 443.041 183.463 443.226 182.554C443.433 181.626 443.536 180.501 443.536 179.18V155.588H453.319V180.666C453.319 182.049 453.195 183.297 452.948 184.412C452.721 185.527 452.287 186.61 451.647 187.663C451.028 188.695 450.203 189.562 449.171 190.263C448.159 190.945 446.828 191.491 445.177 191.904C443.546 192.317 441.647 192.523 439.48 192.523Z" fill="white"/>
<path d="M405.001 191.873V163.793H397.756V155.588H422.71V163.793H415.466V191.873H405.001Z" fill="white"/>
<path d="M375.527 191.873H365.682V158.498L364.165 155.588H375.558L381.255 167.353L386.704 179.087L385.187 165.31V155.588H395.063V191.873H385.62L378.252 177.539L373.701 168.56L375.527 180.449V191.873Z" fill="white"/>
<path d="M353.098 191.873L351.705 186.084H342.913L341.736 191.873H332.634L342.077 158.096L341.334 155.588H354.12L364.461 191.873H353.098ZM346.906 166.238L344.182 179.768H350.188L346.906 166.238Z" fill="white"/>
<path d="M317.303 192.523C315.178 192.523 313.289 192.317 311.638 191.904C310.007 191.491 308.666 190.934 307.613 190.232C306.581 189.531 305.724 188.664 305.043 187.632C304.383 186.579 303.918 185.475 303.65 184.319C303.382 183.163 303.248 181.884 303.248 180.48V155.588H314.269V179.087C314.269 181.708 314.538 183.514 315.074 184.505C315.632 185.475 316.437 185.96 317.489 185.96C318.067 185.96 318.573 185.867 319.006 185.681C319.44 185.475 319.842 185.134 320.214 184.66C320.585 184.164 320.864 183.463 321.05 182.554C321.256 181.626 321.359 180.501 321.359 179.18V155.588H331.143V180.666C331.143 182.049 331.019 183.297 330.771 184.412C330.544 185.527 330.111 186.61 329.471 187.663C328.852 188.695 328.026 189.562 326.994 190.263C325.983 190.945 324.651 191.491 323 191.904C321.37 192.317 319.471 192.523 317.303 192.523Z" fill="white"/>
<path d="M284.954 187.322C286.151 187.322 287.007 186.91 287.523 186.084C288.287 184.825 288.669 181.719 288.669 176.765V168.994C288.669 166.042 288.38 163.844 287.802 162.399C287.224 160.955 286.275 160.232 284.954 160.232C284.025 160.232 283.303 160.562 282.787 161.223C281.858 162.42 281.393 165.372 281.393 170.078V178.158C281.393 181.584 281.651 183.968 282.167 185.31C282.704 186.652 283.633 187.322 284.954 187.322ZM288.143 201.904C285.459 201.904 283.55 201.161 282.415 199.675C281.28 198.21 280.661 195.733 280.557 192.245C279.298 192.039 278.163 191.708 277.152 191.254C276.14 190.8 275.274 190.274 274.551 189.675C273.829 189.056 273.199 188.313 272.663 187.446C272.126 186.579 271.682 185.671 271.331 184.722C271.001 183.772 270.733 182.699 270.526 181.502C270.32 180.284 270.175 179.077 270.093 177.879C270.031 176.682 270 175.341 270 173.855C270 171.378 270.124 169.221 270.372 167.384C270.64 165.547 271.125 163.824 271.827 162.214C272.528 160.583 273.457 159.262 274.613 158.251C275.79 157.239 277.296 156.445 279.133 155.867C280.991 155.289 283.179 155 285.697 155C287.431 155 288.989 155.165 290.372 155.495C291.755 155.805 292.941 156.238 293.932 156.796C294.923 157.353 295.779 158.075 296.502 158.963C297.245 159.85 297.833 160.8 298.267 161.811C298.721 162.802 299.082 163.968 299.35 165.31C299.618 166.651 299.804 167.983 299.907 169.304C300.011 170.625 300.062 172.121 300.062 173.793C300.062 175.774 299.98 177.549 299.815 179.118C299.649 180.666 299.35 182.152 298.917 183.576C298.483 184.98 297.916 186.197 297.214 187.229C296.533 188.261 295.645 189.17 294.551 189.954C293.478 190.718 292.209 191.316 290.743 191.75V191.904C290.743 193.556 290.981 194.65 291.455 195.186C291.951 195.723 292.704 195.991 293.715 195.991C294.004 195.991 294.273 195.96 294.52 195.898C294.789 195.857 295.026 195.795 295.232 195.712C295.439 195.63 295.635 195.527 295.821 195.403V199.613C295.8 199.634 295.769 199.665 295.728 199.706C294.035 201.172 291.507 201.904 288.143 201.904Z" fill="white"/>
<defs>
<linearGradient id="paint0_linear_2_154" x1="74.9355" y1="212.466" x2="74.9355" y2="0.000137329" gradientUnits="userSpaceOnUse">
<stop stop-color="#9E5CC8"/>
<stop offset="1" stop-color="#14E1E7"/>
</linearGradient>
<linearGradient id="paint1_linear_2_154" x1="75.2676" y1="207.273" x2="75.2676" y2="60.1781" gradientUnits="userSpaceOnUse">
<stop stop-color="#9E5CC8"/>
<stop offset="1" stop-color="#14E1E7"/>
</linearGradient>
<linearGradient id="paint2_linear_2_154" x1="226.569" y1="132.986" x2="226.569" y2="62.4649" gradientUnits="userSpaceOnUse">
<stop stop-color="#9E5CC8"/>
<stop offset="1" stop-color="#14E1E7"/>
</linearGradient>
<linearGradient id="paint3_linear_2_154" x1="182.693" y1="319" x2="182.693" y2="66.8823" gradientUnits="userSpaceOnUse">
<stop stop-color="#9E5CC8"/>
<stop offset="1" stop-color="#14E1E7"/>
</linearGradient>
<linearGradient id="paint4_linear_2_154" x1="203.073" y1="195.869" x2="203.073" y2="69.498" gradientUnits="userSpaceOnUse">
<stop stop-color="#9E5CC8"/>
<stop offset="1" stop-color="#14E1E7"/>
</linearGradient>
<linearGradient id="paint5_linear_2_154" x1="68.8686" y1="209.896" x2="68.8686" y2="139.685" gradientUnits="userSpaceOnUse">
<stop stop-color="#9E5CC8"/>
<stop offset="1" stop-color="#14E1E7"/>
</linearGradient>
<linearGradient id="paint6_linear_2_154" x1="219.601" y1="52.0107" x2="252.145" y2="81.9531" gradientUnits="userSpaceOnUse">
<stop stop-color="#9E5CC8"/>
<stop offset="1" stop-color="#14E1E7"/>
</linearGradient>
<linearGradient id="paint7_linear_2_154" x1="80.2143" y1="186.723" x2="112.759" y2="216.666" gradientUnits="userSpaceOnUse">
<stop stop-color="#9E5CC8"/>
<stop offset="1" stop-color="#14E1E7"/>
</linearGradient>
<linearGradient id="paint8_linear_2_154" x1="648.967" y1="145.808" x2="630.38" y2="188.608" gradientUnits="userSpaceOnUse">
<stop stop-color="#9E5CC8"/>
<stop offset="1" stop-color="#14E1E7"/>
</linearGradient>
<linearGradient id="paint9_linear_2_154" x1="621.131" y1="144.886" x2="598.029" y2="183.767" gradientUnits="userSpaceOnUse">
<stop stop-color="#9E5CC8"/>
<stop offset="1" stop-color="#14E1E7"/>
</linearGradient>
<linearGradient id="paint10_linear_2_154" x1="600.416" y1="145.808" x2="575.876" y2="164.552" gradientUnits="userSpaceOnUse">
<stop stop-color="#9E5CC8"/>
<stop offset="1" stop-color="#14E1E7"/>
</linearGradient>
<linearGradient id="paint11_linear_2_154" x1="579.149" y1="145.454" x2="558.73" y2="186.578" gradientUnits="userSpaceOnUse">
<stop stop-color="#9E5CC8"/>
<stop offset="1" stop-color="#14E1E7"/>
</linearGradient>
<linearGradient id="paint12_linear_2_154" x1="552.44" y1="145.808" x2="528.831" y2="180.711" gradientUnits="userSpaceOnUse">
<stop stop-color="#9E5CC8"/>
<stop offset="1" stop-color="#14E1E7"/>
</linearGradient>
<linearGradient id="paint13_linear_2_154" x1="525.157" y1="145.808" x2="506.57" y2="188.608" gradientUnits="userSpaceOnUse">
<stop stop-color="#9E5CC8"/>
<stop offset="1" stop-color="#14E1E7"/>
</linearGradient>
</defs>
</svg>
